<?xml version="1.0" encoding="utf-8"?>
<!-- Generator: Adobe Illustrator 16.2.0, SVG Export Plug-In . SVG Version: 6.00 Build 0)  -->
<!DOCTYPE svg PUBLIC "-//W3C//DTD SVG 1.1//EN" "http://www.w3.org/Graphics/SVG/1.1/DTD/svg11.dtd">
<svg version="1.1" xmlns="http://www.w3.org/2000/svg" xmlns:xlink="http://www.w3.org/1999/xlink" x="0px" y="0px" width="363.5px"
	 height="406.5px" viewBox="0 0 363.5 406.5" enable-background="new 0 0 363.5 406.5" xml:space="preserve">
<g id="Layer_7">
	<path opacity="0.7" fill="#88B4E3" d="M352.572,161.268c1.531-41.416-13.354-83.335-46.152-103.29
		c-16.195-9.853-35.125-15.618-54.063-14.77c-20.314,0.91-39.447,9.178-58.61,15.981c-19.164,6.803-39.906,12.274-59.657,7.434
		c-14.293-3.502-26.864-12.151-41.042-16.095C37.377,35.042-11.128,98.25,16.13,148.465c6.69,12.324,17.013,22.204,25.666,33.237
		c8.653,11.034,15.939,24.346,14.775,38.319c-0.963,11.565-7.562,21.872-10.289,33.152c-5.224,21.604,5.133,45.378,23.043,58.542
		c17.911,13.163,42.071,16.272,63.629,10.858s40.593-18.682,55.57-35.107c8.017-8.793,15.831-19.076,27.35-22.063
		c11.044-2.864,22.439,1.793,33.646,3.934c20.649,3.945,42.857-1.106,59.769-13.595
		C336.393,235.726,351.188,198.703,352.572,161.268z"/>
</g>
<g id="Layer_6">
	<ellipse opacity="0.5" fill="#F9A4A0" cx="174.385" cy="363.659" rx="135.21" ry="27.042"/>
</g>
<g id="Graphics_2">
	<path id="XMLID_125_" fill="#2E3136" stroke="#263238" stroke-linecap="round" stroke-linejoin="round" stroke-miterlimit="10" d="
		M312.374,147.333H268.66c-3.577,0-6.477,2.899-6.477,6.477v23.38c0,3.577,2.899,6.477,6.477,6.477h1.361
		c-1.357,3.017-3.968,7.601-8.171,10.333c0,0,8.867-0.618,18.108-10.333h32.415c3.576,0,6.477-2.899,6.477-6.477v-23.38
		C318.851,150.233,315.95,147.333,312.374,147.333z"/>
	<g>
		
			<circle id="XMLID_122_" fill="#F9A4A0" stroke="#263238" stroke-linecap="round" stroke-linejoin="round" stroke-miterlimit="10" cx="279.667" cy="164.667" r="3.333"/>
		
			<circle id="XMLID_124_" fill="#F9A4A0" stroke="#263238" stroke-linecap="round" stroke-linejoin="round" stroke-miterlimit="10" cx="291" cy="164.667" r="3.333"/>
		
			<circle id="XMLID_126_" fill="#F9A4A0" stroke="#263238" stroke-linecap="round" stroke-linejoin="round" stroke-miterlimit="10" cx="302.333" cy="164.667" r="3.333"/>
	</g>
</g>
<g id="Graphics_1">
	<g>
		<g id="XMLID_123_">
			
				<path id="XMLID_100_" fill="#2E3136" stroke="#263238" stroke-linecap="round" stroke-linejoin="round" stroke-miterlimit="10" d="
				M322.738,124.583h-96.353c-1.86,0-3.367-3.641-3.367-8.13V27.788c0-4.491,1.507-8.13,3.367-8.13h96.353
				c1.859,0,3.367,3.639,3.367,8.13v88.665C326.105,120.942,324.598,124.583,322.738,124.583z"/>
			
				<line id="XMLID_105_" fill="none" stroke="#F9A4A0" stroke-linecap="round" stroke-linejoin="round" stroke-miterlimit="10" x1="286.451" y1="119.293" x2="286.451" y2="85.195"/>
			
				<line id="XMLID_47_" fill="none" stroke="#9EE09E" stroke-linecap="round" stroke-linejoin="round" stroke-miterlimit="10" x1="286.451" y1="85.472" x2="286.451" y2="25.435"/>
		</g>
		<g>
			<g>
				<path fill="#9EE09E" d="M235.607,25.877h20.852h-1.062h20.853h-6.689h8.06c2.694,0.282,3.002,1.558,3.037,3.48h0.005h-25.265
					h1.062h-25.266h0.007c0.034-1.922,0.344-3.198,3.038-3.48h8.058"/>
				<path fill="#FFFFFF" d="M280.663,29.357c0.005,0.604,0.005,1.233,0.005,1.888l0,0v11.099c-0.549,4.192-3.289,4.192-6.081,4.192
					h-20.58h3.846h-20.578c-2.792,0-5.533,0-6.081-4.192V31.245l0,0c0-0.654,0-1.284,0.005-1.888"/>
			</g>
			<g>
				<path fill="#FFFFFF" d="M322.505,29.357v2.833l0,0c0,2.354,0,3.942-1.921,4.26h-5.088h3.408H294.58c-1.797,0-3.561,0-3.914-1.73
					v-4.583l0,0c0-0.27,0-0.53,0.003-0.779"/>
				<path fill="#9EE09E" d="M293.507,25.877h13.42h-0.685h13.42h-4.305h5.188c1.733,0.282,1.932,1.558,1.954,3.48h0.003h-16.26
					h0.685h-16.261h0.003c0.023-1.922,0.221-3.198,1.956-3.48h5.185"/>
			</g>
			<g>
				
					<line id="XMLID_93_" fill="none" stroke="#263238" stroke-linecap="round" stroke-linejoin="round" stroke-miterlimit="10" x1="235.462" y1="40.896" x2="276.397" y2="40.896"/>
				
					<line id="XMLID_70_" fill="none" stroke="#263238" stroke-linecap="round" stroke-linejoin="round" stroke-miterlimit="10" x1="235.459" y1="34.997" x2="276.395" y2="34.997"/>
			</g>
		</g>
		<path fill="#9EE09E" d="M235.607,50.22h20.852h-1.062h20.853h-6.689h8.06c2.694,0.333,3.002,1.845,3.037,4.12h0.005h-25.265h1.062
			h-25.266h0.007c0.034-2.275,0.344-3.787,3.038-4.12h8.058"/>
		<g>
			<path fill="#FFFFFF" d="M322.505,53.699v2.833l0,0c0,2.354,0,3.941-1.921,4.259h-5.088h3.408H294.58c-1.797,0-3.561,0-3.914-1.73
				v-4.583l0,0c0-0.27,0-0.53,0.003-0.78"/>
			<path fill="#9EE09E" d="M293.507,50.22h13.42h-0.685h13.42h-4.305h5.188c1.733,0.281,1.932,1.558,1.954,3.479h0.003h-16.26h0.685
				h-16.261h0.003c0.023-1.921,0.221-3.198,1.956-3.479h5.185"/>
		</g>
		<g>
			<g>
				<path fill="#F9A4A0" d="M235.61,86.989h20.852h-1.063h20.853h-6.688h8.06c2.693,0.281,3.001,1.558,3.036,3.479h0.005h-25.265
					h1.063h-25.267h0.007c0.035-1.921,0.344-3.198,3.039-3.479h8.057"/>
				<path fill="#FFFFFF" d="M280.663,90.469c0.005,1.021,0.005,2.086,0.005,3.192l0,0v18.77c-0.549,7.088-3.289,7.088-6.081,7.088
					h-20.58h3.846h-20.578c-2.792,0-5.533,0-6.081-7.088v-18.77l0,0c0-1.106,0-2.171,0.005-3.192"/>
			</g>
			<g>
				<path fill="#FFFFFF" d="M322.508,90.469v2.833l0,0c0,2.354,0,3.941-1.921,4.259h-5.089h3.408h-24.324
					c-1.796,0-3.561,0-3.914-1.73v-4.583l0,0c0-0.27,0-0.53,0.003-0.78"/>
				<path fill="#F9A4A0" d="M293.509,86.989h13.42h-0.685h13.42h-4.304h5.188c1.732,0.281,1.931,1.558,1.954,3.479h0.002h-16.26
					h0.685h-16.261h0.003c0.023-1.921,0.222-3.198,1.956-3.479h5.185"/>
			</g>
		</g>
		<path fill="#FFFFFF" d="M280.661,54.34c0.006,1.021,0.006,2.085,0.006,3.192l0,0v18.77c-0.549,7.089-3.291,7.089-6.082,7.089
			h-20.579h3.847h-20.579c-2.792,0-5.534,0-6.082-7.089v-18.77l0,0c0-1.106,0-2.171,0.006-3.192"/>
		<g>
			
				<line id="XMLID_99_" fill="none" stroke="#263238" stroke-linecap="round" stroke-linejoin="round" stroke-miterlimit="10" x1="235.463" y1="60.043" x2="276.397" y2="60.043"/>
			
				<line id="XMLID_82_" fill="none" stroke="#263238" stroke-linecap="round" stroke-linejoin="round" stroke-miterlimit="10" x1="235.463" y1="77.742" x2="276.397" y2="77.742"/>
			
				<line id="XMLID_15_" fill="none" stroke="#263238" stroke-linecap="round" stroke-linejoin="round" stroke-miterlimit="10" x1="235.463" y1="71.842" x2="276.397" y2="71.842"/>
			
				<line id="XMLID_65_" fill="none" stroke="#263238" stroke-linecap="round" stroke-linejoin="round" stroke-miterlimit="10" x1="235.46" y1="65.942" x2="276.395" y2="65.942"/>
		</g>
		<g>
			
				<line id="XMLID_69_" fill="none" stroke="#263238" stroke-linecap="round" stroke-linejoin="round" stroke-miterlimit="10" x1="235.464" y1="96.145" x2="276.399" y2="96.145"/>
			
				<line id="XMLID_68_" fill="none" stroke="#263238" stroke-linecap="round" stroke-linejoin="round" stroke-miterlimit="10" x1="235.464" y1="113.844" x2="276.399" y2="113.844"/>
			
				<line id="XMLID_67_" fill="none" stroke="#263238" stroke-linecap="round" stroke-linejoin="round" stroke-miterlimit="10" x1="235.464" y1="107.944" x2="276.399" y2="107.944"/>
			
				<line id="XMLID_66_" fill="none" stroke="#263238" stroke-linecap="round" stroke-linejoin="round" stroke-miterlimit="10" x1="235.462" y1="102.044" x2="276.397" y2="102.044"/>
		</g>
	</g>
	<g>
		<g>
			<path fill="#3F4349" stroke="#3F4349" stroke-linecap="round" stroke-linejoin="round" stroke-miterlimit="10" d="M67.381,18.551
				H39.372c-6.396,0-11.583,7.383-11.583,16.488v6.571v120.677h39.501L67.381,18.551"/>
			<g>
				<path fill="#2E3136" stroke="#2E3136" stroke-linecap="round" stroke-linejoin="round" stroke-miterlimit="10" d="
					M67.381,18.551h100.181c6.396,0,11.583,7.383,11.583,16.488v6.571l-111.764-0.1V18.551z"/>
				
					<rect x="67.381" y="41.61" fill="#FFFFFF" stroke="#2E3136" stroke-linecap="round" stroke-linejoin="round" stroke-miterlimit="10" width="111.764" height="120.776"/>
			</g>
			<g>
				<g>
					<g>
						
							<rect x="72.096" y="49.738" fill="none" stroke="#263238" stroke-width="0.5" stroke-linecap="round" stroke-linejoin="round" stroke-miterlimit="10" width="101.598" height="29.167"/>
						<path fill="none" stroke="#88B4E3" stroke-linecap="round" stroke-linejoin="round" stroke-miterlimit="10" d="M72.538,71.718
							c15-6.72,26.438-13.39,53.892-1.415c26.5,11.56,27.943-5.15,28.95-7.646c4.733-11.74,14.609-6.574,17.946-5.026"/>
					</g>
					<g>
						
							<rect x="72.096" y="85.965" fill="none" stroke="#263238" stroke-width="0.5" stroke-linecap="round" stroke-linejoin="round" stroke-miterlimit="10" width="101.598" height="29.167"/>
						<path fill="none" stroke="#88B4E3" stroke-linecap="round" stroke-linejoin="round" stroke-miterlimit="10" d="
							M72.538,107.944c7.725-16.401,19.337-16.247,28.735-8.001c21.659,19.004,30.92,1.772,42.698-4.371
							c18.417-9.607,26.386-7.5,29.724-7.165"/>
					</g>
					<g>
						
							<rect x="72.096" y="122.494" fill="none" stroke="#263238" stroke-width="0.5" stroke-linecap="round" stroke-linejoin="round" stroke-miterlimit="10" width="101.598" height="29.167"/>
						<path fill="none" stroke="#88B4E3" stroke-linecap="round" stroke-linejoin="round" stroke-miterlimit="10" d="
							M72.538,149.363c17.1-9.027,14.543-20.13,38.85-6.791c12.375,6.791,15.875,4.625,29.375-0.625
							c11.408-4.436,18.924-17.254,32.563-11.561"/>
					</g>
				</g>
				<g>
					
						<circle fill="#F9A4A0" stroke="#F9A4A0" stroke-linecap="round" stroke-linejoin="round" stroke-miterlimit="10" cx="95.513" cy="63.787" r="1.333"/>
					
						<circle fill="#9EE09E" stroke="#9EE09E" stroke-linecap="round" stroke-linejoin="round" stroke-miterlimit="10" cx="128.054" cy="71.164" r="1.333"/>
					
						<circle fill="#F9A4A0" stroke="#F9A4A0" stroke-linecap="round" stroke-linejoin="round" stroke-miterlimit="10" cx="92.179" cy="136.551" r="1.333"/>
					
						<circle fill="#F9A4A0" stroke="#F9A4A0" stroke-linecap="round" stroke-linejoin="round" stroke-miterlimit="10" cx="159.105" cy="89.418" r="1.333"/>
					
						<circle fill="#F9A4A0" stroke="#F9A4A0" stroke-linecap="round" stroke-linejoin="round" stroke-miterlimit="10" cx="125.888" cy="147.057" r="1.333"/>
					
						<circle fill="#F9A4A0" stroke="#F9A4A0" stroke-linecap="round" stroke-linejoin="round" stroke-miterlimit="10" cx="108.305" cy="105.121" r="1.333"/>
					
						<circle fill="#9EE09E" stroke="#9EE09E" stroke-linecap="round" stroke-linejoin="round" stroke-miterlimit="10" cx="79.763" cy="97.694" r="1.333"/>
					
						<circle fill="#9EE09E" stroke="#9EE09E" stroke-linecap="round" stroke-linejoin="round" stroke-miterlimit="10" cx="155.379" cy="132.913" r="1.333"/>
					
						<circle fill="#9EE09E" stroke="#9EE09E" stroke-linecap="round" stroke-linejoin="round" stroke-miterlimit="10" cx="138.388" cy="99.196" r="1.333"/>
					
						<circle fill="#9EE09E" stroke="#9EE09E" stroke-linecap="round" stroke-linejoin="round" stroke-miterlimit="10" cx="164.729" cy="55.265" r="1.333"/>
				</g>
			</g>
		</g>
		<g>
			
				<circle fill="#FFFFFF" stroke="#263238" stroke-linecap="round" stroke-linejoin="round" stroke-miterlimit="10" cx="166.42" cy="28.218" r="2.953"/>
			<path fill="#FFFFFF" stroke="#263238" stroke-linecap="round" stroke-linejoin="round" stroke-miterlimit="10" d="
				M161.286,34.896c0-2.058,2.298-3.725,5.134-3.725c2.835,0,5.133,1.667,5.133,3.725"/>
		</g>
		
			<line fill="none" stroke="#FFFFFF" stroke-linecap="round" stroke-linejoin="round" stroke-miterlimit="10" x1="32.201" y1="56.522" x2="62.451" y2="56.522"/>
		
			<line fill="none" stroke="#FFFFFF" stroke-linecap="round" stroke-linejoin="round" stroke-miterlimit="10" x1="32.201" y1="68.522" x2="62.451" y2="68.522"/>
		
			<line fill="none" stroke="#FFFFFF" stroke-linecap="round" stroke-linejoin="round" stroke-miterlimit="10" x1="32.201" y1="50.522" x2="62.451" y2="50.522"/>
		
			<line fill="none" stroke="#FFFFFF" stroke-linecap="round" stroke-linejoin="round" stroke-miterlimit="10" x1="32.201" y1="62.522" x2="62.451" y2="62.522"/>
		
			<line fill="none" stroke="#FFFFFF" stroke-linecap="round" stroke-linejoin="round" stroke-miterlimit="10" x1="32.201" y1="74.522" x2="62.451" y2="74.522"/>
		<path fill="#FFFFFF" d="M36.641,90.775c-1.801,0-3.263,1.462-3.263,3.263c0,1.801,1.462,3.263,3.263,3.263
			c1.801,0,3.263-1.462,3.263-3.263C39.904,92.237,38.442,90.775,36.641,90.775z M38.272,94.364h-1.305v1.305h-0.653v-1.305h-1.305
			v-0.653h1.305v-1.305h0.653v1.305h1.305V94.364z"/>
		<path fill="#FFFFFF" d="M39.807,102.835h-1.583l-0.452-0.453H35.51l-0.452,0.453h-1.583v0.905h6.333V102.835z M33.927,104.192
			v5.428c0,0.498,0.407,0.905,0.904,0.905h3.619c0.498,0,0.905-0.407,0.905-0.905v-5.428H33.927z M37.545,107.359v1.81h-1.809v-1.81
			h-0.905l1.81-1.81l1.81,1.81H37.545z"/>
		<g>
			
				<line fill="none" stroke="#FFFFFF" stroke-linecap="round" stroke-linejoin="round" stroke-miterlimit="10" x1="43.682" y1="92.406" x2="61.951" y2="92.406"/>
			
				<line fill="none" stroke="#FFFFFF" stroke-linecap="round" stroke-linejoin="round" stroke-miterlimit="10" x1="43.682" y1="95.669" x2="61.951" y2="95.669"/>
		</g>
		<g>
			
				<line fill="none" stroke="#FFFFFF" stroke-linecap="round" stroke-linejoin="round" stroke-miterlimit="10" x1="43.682" y1="104.823" x2="61.951" y2="104.823"/>
			
				<line fill="none" stroke="#FFFFFF" stroke-linecap="round" stroke-linejoin="round" stroke-miterlimit="10" x1="43.682" y1="108.086" x2="61.951" y2="108.086"/>
		</g>
	</g>
</g>
<g id="Character">
	<g>
		<g>
			<defs>
				<path id="XMLID_19_" d="M210.969,169.372c0,0,10.648,22.731,10.648,23.927c0,1.196-9.451,6.341-11.246,7.418
					c-1.795,1.076-4.307,2.153-4.307,2.153l1.076,10.528c0,0,16.271-3.709,23.09-7.418s6.58-7.896,5.025-14.117
					c-1.556-6.221-12.084-30.268-12.084-30.268L210.969,169.372z"/>
			</defs>
			<use xlink:href="#XMLID_19_"  overflow="visible" fill="#FFFFFF"/>
			<clipPath id="XMLID_57_">
				<use xlink:href="#XMLID_19_"  overflow="visible"/>
			</clipPath>
			<path opacity="0.5" clip-path="url(#XMLID_57_)" fill="#F9A4A0" d="M230.23,205.98c6.819-3.709,6.58-7.896,5.025-14.117
				c-1.556-6.221-12.084-30.268-12.084-30.268l-1.699,1.083l-0.542,1.026c0,0,9.807,24.071,10.4,32.094
				c0.399,5.388-10.449,12.109-17.625,15.948C219.015,210.32,226.24,208.151,230.23,205.98z"/>
			
				<use xlink:href="#XMLID_19_"  overflow="visible" fill="none" stroke="#263238" stroke-linecap="round" stroke-linejoin="round" stroke-miterlimit="10"/>
		</g>
		<g>
			<defs>
				<path id="XMLID_30_" d="M134.162,164.347c0,0-7.776,28.474-8.016,33.499c-0.239,5.024,15.433,14.954,16.031,15.553
					c0.598,0.598-0.888-17.303-0.888-17.303l5.315-26.006L134.162,164.347z"/>
			</defs>
			<use xlink:href="#XMLID_30_"  overflow="visible" fill="#FFFFFF"/>
			<clipPath id="XMLID_64_">
				<use xlink:href="#XMLID_30_"  overflow="visible"/>
			</clipPath>
			<path opacity="0.5" clip-path="url(#XMLID_64_)" fill="#F9A4A0" d="M137.724,166.676l-0.173-0.766l-3.388-1.564
				c0,0-7.776,28.474-8.016,33.499c-0.239,5.024,15.433,14.954,16.031,15.553c0.237,0.237,0.146-2.437-0.049-5.747
				c-4.661-3.953-11.35-9.508-12.131-11.853"/>
			
				<use xlink:href="#XMLID_30_"  overflow="visible" fill="none" stroke="#263238" stroke-linecap="round" stroke-linejoin="round" stroke-miterlimit="10"/>
		</g>
	</g>
	<g>
		<path id="XMLID_18_" fill="#F9A4A0" stroke="#263238" stroke-linecap="round" stroke-linejoin="round" stroke-miterlimit="10" d="
			M170.651,135.753c0,0-2.991,2.154-8.853,2.393s-6.127-3.983-13.399-3.948c-8.804,0.042-19.86,27.875-19.86,27.875
			s5.503,5.384,10.887,7.657c5.383,2.273,9.332,2.752,9.332,2.752l0.837,18.304h59.34l0.718-18.304l18.544-12.083
			c0,0-9.093-16.271-13.52-22.372s-11.844-3.829-14.117-2.273c-2.272,1.556-8.973,1.915-11.485,1.556
			c-2.512-0.359-9.57-2.632-9.57-2.632S175.676,131.447,170.651,135.753z"/>
		
			<line id="XMLID_20_" fill="none" stroke="#263238" stroke-width="0.5" stroke-linecap="round" stroke-linejoin="round" stroke-miterlimit="10" x1="149.356" y1="142.214" x2="149.117" y2="172.602"/>
		
			<path id="XMLID_21_" fill="none" stroke="#263238" stroke-width="0.5" stroke-linecap="round" stroke-linejoin="round" stroke-miterlimit="10" d="
			M151.509,144.966c0,0,0.838,14.835,3.948,23.09"/>
		
			<path id="XMLID_22_" fill="none" stroke="#263238" stroke-width="0.5" stroke-linecap="round" stroke-linejoin="round" stroke-miterlimit="10" d="
			M156.056,169.252c0,0,1.555,4.427,2.512,5.862"/>
		
			<path id="XMLID_23_" fill="none" stroke="#263238" stroke-width="0.5" stroke-linecap="round" stroke-linejoin="round" stroke-miterlimit="10" d="
			M153.424,143.291c0,0,1.794,8.853,4.785,15.792"/>
		
			<path id="XMLID_24_" fill="none" stroke="#263238" stroke-width="0.5" stroke-linecap="round" stroke-linejoin="round" stroke-miterlimit="10" d="
			M204.987,145.923c0,0-2.871,11.724-5.384,16.988"/>
		
			<line id="XMLID_25_" fill="none" stroke="#263238" stroke-width="0.5" stroke-linecap="round" stroke-linejoin="round" stroke-miterlimit="10" x1="209.653" y1="172.482" x2="209.533" y2="148.794"/>
		
			<path id="XMLID_26_" fill="none" stroke="#263238" stroke-width="0.5" stroke-linecap="round" stroke-linejoin="round" stroke-miterlimit="10" d="
			M208.337,149.272c0,0-2.153,14.955-7.417,22.851"/>
		
			<path id="XMLID_27_" fill="none" stroke="#263238" stroke-width="0.5" stroke-linecap="round" stroke-linejoin="round" stroke-miterlimit="10" d="
			M205.705,169.132c0,0-2.393,4.546-4.067,6.939"/>
		
			<path id="XMLID_28_" fill="none" stroke="#263238" stroke-width="0.5" stroke-linecap="round" stroke-linejoin="round" stroke-miterlimit="10" d="
			M167.302,137.548c0,0,1.675,10.289,4.067,15.553c2.393,5.264,6.58,6.341,10.169,4.786c3.59-1.556,6.222-9.212,5.982-19.022"/>
	</g>
	<g>
		<g>
			<g>
				
					<path id="XMLID_13_" fill="#F9A4A0" stroke="#263238" stroke-linecap="round" stroke-linejoin="round" stroke-miterlimit="10" d="
					M158.808,116.014c0,0-2.273-3.948-4.068-1.915c-1.794,2.034,1.436,6.7,3.23,8.255c1.795,1.556,3.111,0.598,2.991-1.077
					S158.808,116.014,158.808,116.014z"/>
				<path id="XMLID_128_" opacity="0.5" fill="#FFFFFF" d="M158.808,116.014c0,0-2.273-3.948-4.068-1.915
					c-1.794,2.034,1.436,6.7,3.23,8.255c1.795,1.556,3.111,0.598,2.991-1.077S158.808,116.014,158.808,116.014z"/>
			</g>
			<path id="XMLID_1_" fill="none" stroke="#263238" stroke-linecap="round" stroke-linejoin="round" stroke-miterlimit="10" d="
				M158.808,116.014c0,0-2.273-3.948-4.068-1.915c-1.794,2.034,1.436,6.7,3.23,8.255c1.795,1.556,3.111,0.598,2.991-1.077
				S158.808,116.014,158.808,116.014z"/>
		</g>
		<g>
			
				<path id="XMLID_16_" fill="#F9A4A0" stroke="#263238" stroke-linecap="round" stroke-linejoin="round" stroke-miterlimit="10" d="
				M195.018,116.014c0,0,2.273-3.948,4.067-1.915c1.795,2.034-1.436,6.7-3.229,8.255c-1.795,1.556-3.111,0.598-2.991-1.077
				S195.018,116.014,195.018,116.014z"/>
			<path id="XMLID_129_" opacity="0.5" fill="#FFFFFF" d="M195.018,116.014c0,0,2.273-3.948,4.067-1.915
				c1.795,2.034-1.436,6.7-3.229,8.255c-1.795,1.556-3.111,0.598-2.991-1.077S195.018,116.014,195.018,116.014z"/>
		</g>
		<path id="XMLID_5_" fill="none" stroke="#263238" stroke-linecap="round" stroke-linejoin="round" stroke-miterlimit="10" d="
			M195.018,116.014c0,0,2.273-3.948,4.067-1.915c1.795,2.034-1.436,6.7-3.229,8.255c-1.795,1.556-3.111,0.598-2.991-1.077
			S195.018,116.014,195.018,116.014z"/>
		<path id="XMLID_17_" fill="#FFFFFF" stroke="#263238" stroke-linecap="round" stroke-linejoin="round" stroke-miterlimit="10" d="
			M169.575,134.916c0,0,2.153,9.691,4.307,15.075c2.153,5.383,6.221,5.383,7.896,1.914c1.675-3.47,2.752-16.391,2.752-16.391
			S173.284,137.07,169.575,134.916z"/>
		<g>
			<defs>
				<path id="XMLID_7_" d="M159.046,117.33c0,0,3.111,11.006,8.973,17.467s8.016,8.016,11.126,7.537s6.461-4.546,11.127-13.041
					c4.665-8.494,5.024-14.955,5.383-15.553c0.359-0.598-0.957-12.562-7.656-17.706c-6.7-5.145-14.117-7.417-20.578-1.795
					C160.961,99.862,156.893,109.075,159.046,117.33z"/>
			</defs>
			<use xlink:href="#XMLID_7_"  overflow="visible" fill="#FFFFFF"/>
			<clipPath id="XMLID_71_">
				<use xlink:href="#XMLID_7_"  overflow="visible"/>
			</clipPath>
			<path opacity="0.5" clip-path="url(#XMLID_71_)" fill="#F9A4A0" d="M187.999,96.034c-6.7-5.145-14.117-7.417-20.578-1.795
				c-6.46,5.623-10.528,14.835-8.375,23.09c0,0,0.598,2.116,1.764,5.036c0.001-0.387,0.045-0.754,0.151-1.088
				c1.428-4.525,5.647-13.296,19.853-9.28c11.272,3.187,9.894,13.101,8.845,18.396c0.203-0.361,0.405-0.722,0.614-1.101
				c4.665-8.494,5.024-14.955,5.383-15.553C196.015,113.142,194.698,101.178,187.999,96.034z"/>
			
				<use xlink:href="#XMLID_7_"  overflow="visible" fill="none" stroke="#263238" stroke-linecap="round" stroke-linejoin="round" stroke-miterlimit="10"/>
		</g>
		<path id="XMLID_8_" fill="none" stroke="#263238" stroke-linecap="round" stroke-linejoin="round" stroke-miterlimit="10" d="
			M179.146,123.072c0,0-0.718,4.666-0.598,7.059c0.12,2.393,0.837,3.11-0.239,3.35s-2.273-1.436-2.273-1.436"/>
		<path id="XMLID_9_" fill="none" stroke="#263238" stroke-linecap="round" stroke-linejoin="round" stroke-miterlimit="10" d="
			M167.182,124.986c0,0,2.393,1.794,4.785,0.12"/>
		<path id="XMLID_10_" fill="none" stroke="#263238" stroke-linecap="round" stroke-linejoin="round" stroke-miterlimit="10" d="
			M182.376,124.986c0,0,2.393,1.794,4.785,0.12"/>
		<path id="XMLID_11_" fill="none" stroke="#263238" stroke-linecap="round" stroke-linejoin="round" stroke-miterlimit="10" d="
			M174.817,120.958c0,0-2.273-5.623-9.81-2.991"/>
		<path id="XMLID_12_" fill="none" stroke="#263238" stroke-linecap="round" stroke-linejoin="round" stroke-miterlimit="10" d="
			M181.086,120.265c0,0,1.914-5.503,8.733-2.273"/>
		<path id="XMLID_6_" fill="none" stroke="#263238" stroke-linecap="round" stroke-linejoin="round" stroke-miterlimit="10" d="
			M176.274,125.405c0,3.073-3.535,5.563-7.896,5.563s-7.896-2.491-7.896-5.563c0-3.072,3.296-4.367,7.657-4.367
			S176.274,122.333,176.274,125.405z"/>
		<path id="XMLID_14_" fill="none" stroke="#263238" stroke-linecap="round" stroke-linejoin="round" stroke-miterlimit="10" d="
			M194.459,125.405c0,3.073-3.535,5.563-7.896,5.563c-4.361,0-7.896-2.491-7.896-5.563c0-3.072,3.296-4.367,7.657-4.367
			C190.685,121.038,194.459,122.333,194.459,125.405z"/>
	</g>
	<g>
		<path id="XMLID_48_" fill="#FFFFFF" stroke="#263238" stroke-linecap="round" stroke-linejoin="round" stroke-miterlimit="10" d="
			M93.633,221.333L93.14,342.556C93.136,343.353,93.78,344,94.577,344l0,0c0.774,0,1.41-0.614,1.437-1.389L99.466,221.5
			L93.633,221.333z"/>
		<path id="XMLID_46_" fill="#FFFFFF" stroke="#263238" stroke-linecap="round" stroke-linejoin="round" stroke-miterlimit="10" d="
			M85.466,249.667L84.973,375c-0.004,0.797,0.641,1.444,1.437,1.444l0,0c0.775,0,1.41-0.614,1.437-1.389l3.453-125.223
			L85.466,249.667z"/>
		<path id="XMLID_51_" fill="#FFFFFF" stroke="#263238" stroke-linecap="round" stroke-linejoin="round" stroke-miterlimit="10" d="
			M261.231,221.333l0.493,121.223c0.004,0.797-0.641,1.444-1.438,1.444l0,0c-0.774,0-1.41-0.614-1.437-1.389L255.398,221.5
			L261.231,221.333z"/>
		<path id="XMLID_49_" fill="#FFFFFF" stroke="#263238" stroke-linecap="round" stroke-linejoin="round" stroke-miterlimit="10" d="
			M269.398,249.667L269.891,375c0.004,0.797-0.641,1.444-1.437,1.444l0,0c-0.774,0-1.41-0.614-1.437-1.389l-3.453-125.223
			L269.398,249.667z"/>
	</g>
	<g>
		<path id="XMLID_59_" fill="#FFFFFF" stroke="#263238" stroke-linecap="round" stroke-linejoin="round" stroke-miterlimit="10" d="
			M142.292,254.877l-0.313,111.243c-0.002,0.655,0.407,1.188,0.914,1.188l0,0c0.493,0,0.897-0.504,0.914-1.141l2.196-111.153
			L142.292,254.877z"/>
		<path id="XMLID_62_" fill="#FFFFFF" stroke="#263238" stroke-linecap="round" stroke-linejoin="round" stroke-miterlimit="10" d="
			M212.702,251.299l0.265,97.084c0.002,0.553-0.344,1.003-0.772,1.003l0,0c-0.416,0-0.757-0.427-0.771-0.964l-1.854-97.007
			L212.702,251.299z"/>
		<path id="XMLID_63_" fill="#FFFFFF" stroke="#263238" stroke-linecap="round" stroke-linejoin="round" stroke-miterlimit="10" d="
			M141.202,251.299l0.265,97.084c0.002,0.553-0.344,1.003-0.772,1.003l0,0c-0.416,0-0.758-0.427-0.772-0.964l-1.855-97.007
			L141.202,251.299z"/>
		<path id="XMLID_60_" fill="#FFFFFF" stroke="#263238" stroke-linecap="round" stroke-linejoin="round" stroke-miterlimit="10" d="
			M210.688,254.877l0.313,111.243c0.003,0.655-0.407,1.188-0.914,1.188l0,0c-0.492,0-0.896-0.504-0.913-1.141l-2.196-111.153
			L210.688,254.877z"/>
		
			<ellipse id="XMLID_56_" fill="#FFFFFF" stroke="#263238" stroke-linecap="round" stroke-linejoin="round" stroke-miterlimit="10" cx="176" cy="252.5" rx="44.5" ry="10.167"/>
	</g>
	<g>
		<path id="XMLID_54_" fill="#FFFFFF" stroke="#263238" stroke-linecap="round" stroke-linejoin="round" stroke-miterlimit="10" d="
			M154.333,338.833c0,0-2.333,3.334-0.667,5c1.667,1.667,3.333,1,3.167,2.667c-0.167,1.667-2.833,7.333-5.167,13.333
			c-2.333,6,2.5,12,7,10.334c4.5-1.667,4-18.334,4.667-21.334c0.667-3,1.167-3.5,1-6.333c-0.167-2.833-0.333-5.833-2.5-6.167
			C159.667,336,155.333,337.667,154.333,338.833z"/>
		<path id="XMLID_61_" fill="#F9A4A0" stroke="#263238" stroke-linecap="round" stroke-linejoin="round" stroke-miterlimit="10" d="
			M161.485,365.565c-3.002-1.136-7.602-0.901-10.196-0.642c0.87,3.769,4.201,6.42,7.378,5.243
			C159.983,369.679,160.87,367.903,161.485,365.565z"/>
		<path id="XMLID_55_" fill="#FFFFFF" stroke="#263238" stroke-linecap="round" stroke-linejoin="round" stroke-miterlimit="10" d="
			M149.167,331.5c0,0,4.833,8.167,6.167,10.333c1.333,2.167,5.833,1.5,6.333-1.5S159.833,329,159.833,329l-10,2.5H149.167z"/>
		<path id="XMLID_53_" fill="#F9A4A0" stroke="#263238" stroke-linecap="round" stroke-linejoin="round" stroke-miterlimit="10" d="
			M137.667,318.5c0,0-1.333,2.167-0.667,3.667s2.5,5.833,3.667,8c1.167,2.166,6.5,3.5,12.667,2.5c6.167-1,9.667-3.834,9.833-6.334
			c0.167-2.5-1-5.833-1.833-9.833c-0.833-4-3-3.833-6-3.833S140.167,316.167,137.667,318.5z"/>
		<path fill="#2E3136" stroke="#263238" stroke-linecap="round" stroke-linejoin="round" stroke-miterlimit="10" d="M155.667,269.5
			c0.092-4.102,2.465-6.119,2.643-8.93c0.351-5.555-0.479-9.506-0.907-11.108l-4.563-6.235c-13.117,0.17-22.523,0.391-22.673,0.44
			c-0.5,0.166-0.833,3-1.167,5.333c0,0-5.565,0.706-4.565,16.206c0.14,2.167,5.758,27.158,6.165,29.99
			c2.499,17.417,8.067,26.137,8.067,26.137s0.5,2.167,7,1.667s13-4.833,13-4.833S155.333,284.333,155.667,269.5z"/>
		<path id="XMLID_52_" fill="#FFFFFF" stroke="#263238" stroke-linecap="round" stroke-linejoin="round" stroke-miterlimit="10" d="
			M128.095,246.461c0,0-6.883,1.034-11.104,5.817c-4.221,4.783-0.64,7.99,7.563,7.145c8.203-0.845,17.658-9.256,18.059-9.703
			C143.014,249.271,134.06,243.611,128.095,246.461z"/>
		<path fill="#FFFFFF" stroke="#263238" stroke-linecap="round" stroke-linejoin="round" stroke-miterlimit="10" d="M140.333,249.5
			c0,0,7.333,0.333,13,2c5.667,1.667,15.667,5,18,5c2.333,0,1.667-8.667,1.667-10.333c0-1.667-30-2.667-33.667-2.667
			C135.667,243.5,140.333,249.5,140.333,249.5z"/>
		<path fill="#F9A4A0" stroke="#263238" stroke-linecap="round" stroke-linejoin="round" stroke-miterlimit="10" d="M173,246.167
			c0,0-2.667,1.333-3.667,6.333s-2.333,7.667-0.333,9s10.667,2.333,12,1s5-8,5.667-12.333C187.333,245.833,173,246.167,173,246.167z
			"/>
		<path fill="#2E3136" stroke="#263238" stroke-linecap="round" stroke-linejoin="round" stroke-miterlimit="10" d="
			M184.333,247.833c0,0-2.666,3-3.666,6s-1.667,7-1.667,7s4,1,9.333,3.334c5.334,2.333,14.334,4,23,6c8.667,2,11,4,14,4
			s6.667-2.334,11.334-8c4.666-5.667,0.666-17.667-4-21.334c-4.667-3.666-29.667-6.666-33-5.666
			C196.333,240.167,184.333,247.833,184.333,247.833z"/>
		<path id="XMLID_58_" fill="#F9A4A0" stroke="#263238" stroke-linecap="round" stroke-linejoin="round" stroke-miterlimit="10" d="
			M121.793,259.554c-0.666-3.542-2.646-6.567-3.904-8.198c-0.309,0.292-0.611,0.597-0.898,0.923
			C113.28,256.483,115.604,259.468,121.793,259.554z"/>
		
			<path id="XMLID_117_" fill="none" stroke="#FFFFFF" stroke-width="0.5" stroke-linecap="round" stroke-linejoin="round" stroke-miterlimit="10" d="
			M155.162,262.192c0,0-3.44,36.804-10.463,42.537"/>
		
			<path id="XMLID_118_" fill="none" stroke="#FFFFFF" stroke-width="0.5" stroke-linecap="round" stroke-linejoin="round" stroke-miterlimit="10" d="
			M152.725,297.133c0,0-2.724,12.04-9.89,16.77"/>
		
			<path fill="none" stroke="#FFFFFF" stroke-width="0.5" stroke-linecap="round" stroke-linejoin="round" stroke-miterlimit="10" d="
			M197,255.5c0,0-10.667,0.667-3.667,5.333c7,4.667,19.667,7.667,19.667,7.667"/>
	</g>
	<g>
		<path id="XMLID_50_" fill="#2E3136" stroke="#263238" stroke-linecap="round" stroke-linejoin="round" stroke-miterlimit="10" d="
			M274.463,242.89l-3.602-3.243l-8.316-17.973c-0.763-1.646-2.476-2.71-4.368-2.71H96.576c-1.892,0-3.605,1.063-4.367,2.71
			l-10.373,22.414l-1.706-0.628v5.131l0.085-0.065c0.16,1.318,1.323,2.438,2.869,2.438h188.585c1.629,0,2.821-1.242,2.875-2.65
			L274.463,242.89z"/>
		<path id="XMLID_42_" fill="#FFFFFF" stroke="#263238" stroke-linecap="round" stroke-linejoin="round" stroke-miterlimit="10" d="
			M271.669,246.25H83.084c-2.087,0-3.486-2.039-2.646-3.855l11.77-25.435c0.762-1.646,2.475-2.71,4.367-2.71h161.601
			c1.893,0,3.605,1.063,4.368,2.71l11.77,25.435C275.155,244.211,273.756,246.25,271.669,246.25z"/>
		<path opacity="0.5" fill="#F9A4A0" d="M92.634,229.169c0,0-4.27,2.936-1.601,4.003c2.669,1.068,33.361,0.268,37.097-0.8
			c3.736-1.068,8.007-10.942,8.007-12.544s-5.375-2.746-7.358-2.841s-28.138,1.506-28.138,1.506L92.634,229.169z"/>
		<ellipse opacity="0.5" fill="#F9A4A0" cx="245.294" cy="229.703" rx="10.942" ry="4.537"/>
		<ellipse opacity="0.5" fill="#F9A4A0" cx="175.636" cy="232.505" rx="39.232" ry="7.34"/>
	</g>
	<g>
		<path id="XMLID_33_" fill="#F9A4A0" stroke="#263238" stroke-linecap="round" stroke-linejoin="round" stroke-miterlimit="10" d="
			M237.289,211.843c0,0-0.718-2.871-3.11-1.914s-2.153,7.298-1.675,10.887s3.709,1.914,3.709,1.914v-2.153
			c0,0-1.196,0.957-1.795-0.358c-0.598-1.316-0.479-7.896,0.12-7.776c0.598,0.119,1.794,2.153,1.794,2.153
			S236.691,214.355,237.289,211.843z"/>
		<path id="XMLID_36_" fill="#F9A4A0" stroke="#263238" stroke-linecap="round" stroke-linejoin="round" stroke-miterlimit="10" d="
			M235.57,212.321v15.723c0,1.846,4.251,3.342,9.495,3.342c5.245,0,9.496-1.496,9.496-3.342v-15.723H235.57z"/>
		
			<ellipse id="XMLID_32_" fill="#FFFFFF" stroke="#263238" stroke-linecap="round" stroke-linejoin="round" stroke-miterlimit="10" cx="245.066" cy="212.321" rx="9.496" ry="2.891"/>
		
			<ellipse id="XMLID_31_" fill="#FFFFFF" stroke="#263238" stroke-linecap="round" stroke-linejoin="round" stroke-miterlimit="10" cx="245.065" cy="212.321" rx="8.255" ry="2.513"/>
		
			<path id="XMLID_109_" fill="#2E3136" stroke="#263238" stroke-linecap="round" stroke-linejoin="round" stroke-miterlimit="10" d="
			M238.699,213.921c1.515,0.558,3.804,0.913,6.366,0.913s4.853-0.355,6.366-0.913c-1.514-0.558-3.804-0.913-6.366-0.913
			S240.214,213.363,238.699,213.921z"/>
	</g>
	<g>
		
			<polygon id="XMLID_41_" fill="#FFFFFF" stroke="#263238" stroke-linecap="round" stroke-linejoin="round" stroke-miterlimit="10" points="
			91.452,219.5 91.571,224.884 127.821,225.242 127.821,219.021 		"/>
		
			<polygon id="XMLID_40_" fill="#FFFFFF" stroke="#263238" stroke-linecap="round" stroke-linejoin="round" stroke-miterlimit="10" points="
			127.821,225.242 133.085,213.877 133.085,210.527 127.582,220.098 		"/>
		
			<polygon id="XMLID_45_" fill="#FFFFFF" stroke="#263238" stroke-linecap="round" stroke-linejoin="round" stroke-miterlimit="10" points="
			91.452,224.404 91.571,229.788 127.821,230.147 127.821,223.927 		"/>
		
			<polygon id="XMLID_44_" fill="#FFFFFF" stroke="#263238" stroke-linecap="round" stroke-linejoin="round" stroke-miterlimit="10" points="
			127.821,230.147 133.085,218.782 133.085,215.432 127.582,225.003 		"/>
		<g id="XMLID_39_">
			
				<path id="XMLID_38_" fill="#FFFFFF" stroke="#263238" stroke-linecap="round" stroke-linejoin="round" stroke-miterlimit="10" d="
				M105.449,205.861c0,0,0.837-1.675-0.359-2.393c-1.196-0.719-2.512,0.957-3.23,1.555c-0.718,0.599-15.792,10.528-16.271,12.084
				c-0.479,1.555,0,5.024,3.23,5.383c3.23,0.359,6.101-1.794,7.537-2.153c1.436-0.358,2.034-0.479,2.034-0.479l9.93-13.399
				L105.449,205.861z"/>
			
				<path id="XMLID_43_" fill="#FFFFFF" stroke="#263238" stroke-linecap="round" stroke-linejoin="round" stroke-miterlimit="10" d="
				M88.82,222.49c3.23,0.359,6.101-1.794,7.537-2.153c1.436-0.358,2.034-0.479,2.034-0.479l0.36-0.485l-9.333-1.907
				c0,0-1.675-1.675-3.829-0.359C85.111,218.662,85.589,222.132,88.82,222.49z"/>
			
				<path id="XMLID_34_" fill="#FFFFFF" stroke="#263238" stroke-linecap="round" stroke-linejoin="round" stroke-miterlimit="10" d="
				M89.418,217.466c0,0,19.261,0,27.995,0c8.733,0,11.365-0.479,11.365-0.479l5.384-11.126c0,0-16.988,1.076-22.252,0.718
				c-5.264-0.359-6.46-0.718-6.46-0.718L89.418,217.466z"/>
			
				<path id="XMLID_37_" fill="#FFFFFF" stroke="#263238" stroke-linecap="round" stroke-linejoin="round" stroke-miterlimit="10" d="
				M89.418,217.466l0.479,2.153c0,0,22.731,0.12,28.713,0.12s10.528,0.239,10.528,0.239l-0.359-2.991L89.418,217.466z"/>
			
				<polygon id="XMLID_35_" fill="#FFFFFF" stroke="#263238" stroke-linecap="round" stroke-linejoin="round" stroke-miterlimit="10" points="
				129.137,219.979 134.162,208.493 134.162,205.861 128.778,216.987 			"/>
		</g>
	</g>
	<g>
		<path id="XMLID_2_" fill="#FFFFFF" stroke="#263238" stroke-linecap="round" stroke-linejoin="round" stroke-miterlimit="10" d="
			M209.899,233.421h-68.554c-0.636,0-1.152-0.516-1.152-1.151l0,0c0-0.637,0.516-1.152,1.152-1.152h68.554
			c0.637,0,1.152,0.516,1.152,1.152l0,0C211.052,232.905,210.536,233.421,209.899,233.421z"/>
		<path id="XMLID_29_" fill="#FFFFFF" stroke="#263238" stroke-linecap="round" stroke-linejoin="round" stroke-miterlimit="10" d="
			M210.478,231.104h-69.722c-0.538,0-0.986-0.412-1.03-0.948l-3.795-45.547c-0.05-0.603,0.426-1.12,1.031-1.12h77.311
			c0.605,0,1.081,0.517,1.031,1.12l-3.795,45.547C211.463,230.692,211.015,231.104,210.478,231.104z"/>
		
			<ellipse id="XMLID_3_" fill="#FFFFFF" stroke="#263238" stroke-linecap="round" stroke-linejoin="round" stroke-miterlimit="10" cx="175.616" cy="208.083" rx="6.583" ry="4.917"/>
	</g>
	<g>
		<path id="XMLID_110_" fill="none" stroke="#263238" stroke-linecap="round" stroke-linejoin="round" stroke-miterlimit="10" d="
			M250.331,172.475c1.058-0.902,1.838-1.965,2.129-3.337c0.229-1.085,0.183-2.075-0.073-2.963"/>
		<path id="XMLID_101_" fill="none" stroke="#263238" stroke-linecap="round" stroke-linejoin="round" stroke-miterlimit="10" d="
			M242.352,208.162c0,0,6.653-3.967,4.479-8.573c-2.176-4.605-9.505-7.594-9.505-14.718c0-6.139,6.528-8.41,10.783-10.873"/>
		<path id="XMLID_106_" fill="none" stroke="#263238" stroke-linecap="round" stroke-linejoin="round" stroke-miterlimit="10" d="
			M248.493,208.034c0,0,3.71-2.471,3.71-6.397c0-2.631-2.814-4.351-6.525-8.573"/>
		<path id="XMLID_108_" fill="none" stroke="#263238" stroke-linecap="round" stroke-linejoin="round" stroke-miterlimit="10" d="
			M243.631,190.505c0,0-2.431-1.919-0.64-5.502"/>
	</g>
	<g>
		<path fill="#263238" d="M187.326,85.75c1.193-0.246,3.74-1.235,5.466-5.218c0.109-0.253-0.007-0.548-0.26-0.658
			c-0.256-0.11-0.548,0.007-0.658,0.26c-1.583,3.654-3.847,4.464-4.781,4.645c1.65-2.045,2.628-4.536,2.628-7.229
			c0-6.938-6.428-12.562-14.356-12.562s-14.356,5.624-14.356,12.562c0,2.574,0.888,4.966,2.407,6.958
			c-1.51-0.079-4.061,0.561-7.294,4.333c-0.18,0.209-0.156,0.525,0.054,0.705c0.094,0.081,0.21,0.121,0.325,0.121
			c0.141,0,0.281-0.059,0.379-0.175c4.126-4.814,6.861-4.018,7.415-3.783c-1.03,0.581-1.918,1.203-2.616,1.832
			c-4.612,4.151-7.417,11.963-7.059,18.543s4.546,11.964,4.546,11.964s4.666-2.991,8.135-9.093c1.794-3.156,3.137-6.08,4.019-8.175
			c0,2.933,0.385,6.474,1.92,8.982c3.446,5.629,8.344,6.564,11.216,6.563c1.406,0,2.327-0.224,2.354-0.231
			c0.143-0.037,0.251-0.132,0.314-0.253c3.86,0.818,7.7,0.747,8.291-0.066c0.957-1.316,2.307-5.402,2.752-10.409
			C198.913,96.984,193.568,89.619,187.326,85.75z M174.093,109.239c-1.939-3.167-1.881-8.338-1.648-11.309
			c0.078-0.214,0.121-0.341,0.121-0.341s-0.232,9.411,8.136,15.672c1.179,0.882,2.753,1.562,4.43,2.066
			C182.684,115.495,177.64,115.032,174.093,109.239z"/>
		
			<path id="XMLID_107_" fill="none" stroke="#FFFFFF" stroke-width="0.5" stroke-linecap="round" stroke-linejoin="round" stroke-miterlimit="10" d="
			M174.26,93.529c0,0-0.822,6.059,6.88,12.015c7.702,5.956,14.993,3.594,14.993,3.594"/>
		
			<path id="XMLID_114_" fill="none" stroke="#FFFFFF" stroke-width="0.5" stroke-linecap="round" stroke-linejoin="round" stroke-miterlimit="10" d="
			M175.39,91.475c0,0,8.113,11.81,19.307,8.729"/>
		
			<path id="XMLID_113_" fill="none" stroke="#FFFFFF" stroke-width="0.5" stroke-linecap="round" stroke-linejoin="round" stroke-miterlimit="10" d="
			M171.385,87.573c0,0-3.8-2.259-8.113,0.616c-4.313,2.875-6.469,9.653-6.469,9.653"/>
		
			<path id="XMLID_115_" fill="none" stroke="#FFFFFF" stroke-width="0.5" stroke-linecap="round" stroke-linejoin="round" stroke-miterlimit="10" d="
			M171.59,90.859c0,0-3.492-0.924-5.648,1.232c-2.156,2.156-2.67,3.286-2.67,3.286"/>
	</g>
</g>
</svg>
